<?xml version="1.0" standalone="no"?>
<!DOCTYPE svg PUBLIC "-//W3C//DTD SVG 1.1//EN" "http://www.w3.org/Graphics/SVG/1.1/DTD/svg11.dtd" >
<!--
2013-9-30: Created.
-->
<svg>
<metadata>
Created by iconfont
</metadata>
<defs>

<font id="iconfont" horiz-adv-x="1024" >
  <font-face
    font-family="iconfont"
    font-weight="500"
    font-stretch="normal"
    units-per-em="1024"
    ascent="896"
    descent="-128"
  />
    <missing-glyph />
    
    <glyph glyph-name="x" unicode="x" horiz-adv-x="1001"
d="M281 543q-27 -1 -53 -1h-83q-18 0 -36.5 -6t-32.5 -18.5t-23 -32t-9 -45.5v-76h912v41q0 16 -0.5 30t-0.5 18q0 13 -5 29t-17 29.5t-31.5 22.5t-49.5 9h-133v-97h-438v97zM955 310v-52q0 -23 0.5 -52t0.5 -58t-10.5 -47.5t-26 -30t-33 -16t-31.5 -4.5q-14 -1 -29.5 -0.5
t-29.5 0.5h-32l-45 128h-439l-44 -128h-29h-34q-20 0 -45 1q-25 0 -41 9.5t-25.5 23t-13.5 29.5t-4 30v167h911zM163 247q-12 0 -21 -8.5t-9 -21.5t9 -21.5t21 -8.5q13 0 22 8.5t9 21.5t-9 21.5t-22 8.5zM316 123q-8 -26 -14 -48q-5 -19 -10.5 -37t-7.5 -25t-3 -15t1 -14.5
t9.5 -10.5t21.5 -4h37h67h81h80h64h36q23 0 34 12t2 38q-5 13 -9.5 30.5t-9.5 34.5q-5 19 -11 39h-368zM336 498v228q0 11 2.5 23t10 21.5t20.5 15.5t34 6h188q31 0 51.5 -14.5t20.5 -52.5v-227h-327z" />
    

    
    <glyph glyph-name="arrow-jiantou-down" unicode="&#59120;" d="M512.309038 385.236154L64.577784 576.128809l447.732278-447.689299 447.732277 447.689299-447.733301-190.892655z"  horiz-adv-x="1024" />

    
    <glyph glyph-name="arrow-jiantou-left" unicode="&#59126;" d="M513.237177 383.687892L704.129832 831.419146 256.440533 383.687892l447.689299-447.732278-190.892655 447.732278z"  horiz-adv-x="1024" />

    
    <glyph glyph-name="arrow-jiantou-right" unicode="&#59127;" d="M510.763846 384.306992L319.872215-63.425286l447.689298 447.732278L319.872215 832.038246l190.891631-447.731254z"  horiz-adv-x="1024" />

    
    <glyph glyph-name="arrow-jiantou-up" unicode="&#59128;" d="M511.690962 382.760776l447.732277-190.892655-447.732277 447.689299L63.959707 191.868121l447.731255 190.892655z"  horiz-adv-x="1024" />

    
    <glyph glyph-name="arrow-line-down" unicode="&#59110;" d="M496.344438 132.33933l0.01535-0.008187a31.67542 31.67542 0 0 1 2.706645-1.319041l0.112564-0.051166c0.429789-0.183172 0.865717-0.354064 1.305738-0.519839 0.053212-0.019443 0.104377-0.042979 0.15759-0.062422 0.418532-0.154519 0.842181-0.295735 1.268899-0.432858 0.076748-0.024559 0.152473-0.053212 0.230244-0.077772 0.413416-0.128937 0.831948-0.245593 1.252527-0.35918 0.092098-0.024559 0.183172-0.054235 0.275269-0.077771 0.398066-0.103354 0.801249-0.192382 1.205455-0.280386 0.118704-0.025583 0.23536-0.057305 0.354064-0.081865 0.381693-0.078795 0.769526-0.143263 1.156336-0.207731 0.143263-0.024559 0.285502-0.054235 0.428765-0.076748 0.3776-0.058328 0.759293-0.101307 1.140987-0.146333 0.156566-0.01842 0.311085-0.042979 0.467651-0.059351 0.394996-0.039909 0.793062-0.065492 1.192151-0.091075 0.147356-0.00921 0.292666-0.025583 0.440022-0.033769a32.772404 32.772404 0 0 1 3.305279 0c0.147356 0.007163 0.292666 0.023536 0.440022 0.033769 0.399089 0.025583 0.797156 0.051165 1.192151 0.091075 0.157589 0.016373 0.311085 0.040932 0.467651 0.059351 0.381693 0.045025 0.763386 0.088004 1.140987 0.146333 0.144286 0.022513 0.285502 0.052189 0.428765 0.076748 0.38681 0.064468 0.773619 0.12996 1.156336 0.207731 0.118704 0.024559 0.23536 0.056282 0.354064 0.081865 0.404206 0.088004 0.807389 0.178055 1.205455 0.280386 0.093121 0.023536 0.183172 0.053212 0.275269 0.077771 0.420579 0.112564 0.839111 0.229221 1.252527 0.35918 0.077771 0.024559 0.152473 0.053212 0.230244 0.077772 0.426719 0.137123 0.850367 0.278339 1.268899 0.432858 0.053212 0.019443 0.104377 0.041956 0.15759 0.062422a30.668487 30.668487 0 0 1 1.305738 0.519839l0.112564 0.051166a31.843242 31.843242 0 0 1 1.370207 0.62831c0.451278 0.220011 0.89744 0.450255 1.336438 0.690731l0.015349 0.008187a32.075533 32.075533 0 0 1 7.384178 5.578042l0.022513-0.022513 351.620289 383.934253c5.791913 5.78782 9.374508 13.785981 9.374508 22.621207 0 17.662265-14.3181 31.980365-31.980365 31.980365-8.834202 0-16.832364-3.582595-22.620184-9.373485L511.698125 207.248414 182.542476 567.057199c-5.78782 5.79089-13.784958 9.373485-22.620183 9.373485-17.662265 0-31.980365-14.3181-31.980366-31.980365 0-8.835226 3.582595-16.833387 9.374508-22.621207l351.62029-383.934253 0.022513 0.022513a32.161491 32.161491 0 0 1 7.3852-5.578042z"  horiz-adv-x="1024" />

    
    <glyph glyph-name="arrow-line-left" unicode="&#59111;" d="M259.497149 399.615653l-0.008187-0.01535a31.67542 31.67542 0 0 1-1.319041-2.706645l-0.051166-0.112564c-0.183172-0.429789-0.354064-0.865717-0.519839-1.305738-0.019443-0.053212-0.042979-0.104377-0.062422-0.157589-0.154519-0.418532-0.295735-0.842181-0.432858-1.2689-0.024559-0.076748-0.053212-0.152473-0.077772-0.230244-0.128937-0.413416-0.245593-0.831948-0.35918-1.252527-0.024559-0.092098-0.054235-0.183172-0.077771-0.275269-0.103354-0.398066-0.192382-0.801249-0.280386-1.205455-0.025583-0.118704-0.057305-0.23536-0.081865-0.354064-0.078795-0.381693-0.143263-0.769526-0.207731-1.156336-0.024559-0.143263-0.054235-0.285502-0.076748-0.428765-0.058328-0.3776-0.101307-0.759293-0.146333-1.140987-0.01842-0.156566-0.042979-0.311085-0.059351-0.46765-0.039909-0.394996-0.065492-0.793062-0.091075-1.192152-0.00921-0.147356-0.025583-0.292666-0.033769-0.440022a32.772404 32.772404 0 0 1 0-3.305279c0.007163-0.147356 0.023536-0.292666 0.033769-0.440022 0.025583-0.399089 0.051165-0.797156 0.091075-1.192151 0.016373-0.157589 0.040932-0.311085 0.059351-0.467651 0.045025-0.381693 0.088004-0.763386 0.146333-1.140987 0.022513-0.144286 0.052189-0.285502 0.076748-0.428765 0.064468-0.38681 0.12996-0.773619 0.207731-1.156336 0.024559-0.118704 0.056282-0.23536 0.081865-0.354064 0.088004-0.404206 0.178055-0.807389 0.280386-1.205455 0.023536-0.093121 0.053212-0.183172 0.077771-0.275269 0.112564-0.420579 0.229221-0.839111 0.35918-1.252527 0.024559-0.077771 0.053212-0.152473 0.077772-0.230244 0.137123-0.426719 0.278339-0.850367 0.432858-1.268899 0.019443-0.053212 0.041956-0.104377 0.062422-0.157589 0.164752-0.438998 0.335644-0.87595 0.519839-1.305739l0.051166-0.112564a31.843242 31.843242 0 0 1 0.62831-1.370207c0.220011-0.451278 0.450255-0.89744 0.690731-1.336438l0.008187-0.015349a32.075533 32.075533 0 0 1 5.578042-7.384178l-0.022513-0.022513 383.934253-351.620289c5.78782-5.791913 13.785981-9.374508 22.621207-9.374508 17.662265 0 31.980365 14.3181 31.980365 31.980365 0 8.834202-3.582595 16.832364-9.373485 22.620184L334.406233 384.261966l359.807762 329.156672c5.79089 5.78782 9.373485 13.784958 9.373485 22.620184 0 17.662265-14.3181 31.980365-31.980366 31.980365-8.835226 0-16.833387-3.582595-22.621206-9.374508l-383.934253-351.62029 0.022513-0.022512a32.133861 32.133861 0 0 1-5.577019-7.386224z"  horiz-adv-x="1024" />

    
    <glyph glyph-name="arrow-line-up" unicode="&#59112;" d="M527.06716 636.463965l-0.015349 0.008187a31.67542 31.67542 0 0 1-2.706645 1.319042l-0.112564 0.051165c-0.429789 0.183172-0.865717 0.354064-1.305738 0.519839-0.053212 0.019443-0.104377 0.042979-0.15759 0.062422a31.360242 31.360242 0 0 1-1.268899 0.432859c-0.076748 0.024559-0.152473 0.053212-0.230244 0.077771-0.413416 0.128937-0.831948 0.245593-1.252527 0.35918-0.092098 0.024559-0.183172 0.054235-0.275269 0.077772a31.247678 31.247678 0 0 1-1.205455 0.280386c-0.118704 0.025583-0.23536 0.057305-0.354064 0.081864-0.381693 0.078795-0.769526 0.143263-1.156336 0.207731-0.143263 0.024559-0.285502 0.054235-0.428765 0.076748-0.3776 0.058328-0.759293 0.101307-1.140987 0.146333-0.156566 0.01842-0.311085 0.042979-0.467651 0.059352a32.647561 32.647561 0 0 1-1.192151 0.091074c-0.147356 0.00921-0.292666 0.025583-0.440022 0.033769a32.772404 32.772404 0 0 1-3.305279 0c-0.147356-0.007163-0.292666-0.023536-0.440022-0.033769-0.399089-0.025583-0.797156-0.051165-1.192151-0.091074-0.157589-0.016373-0.311085-0.040932-0.467651-0.059352-0.381693-0.045025-0.763386-0.088004-1.140987-0.146333-0.144286-0.022513-0.285502-0.052189-0.428765-0.076748-0.38681-0.064468-0.773619-0.12996-1.156336-0.207731-0.118704-0.024559-0.23536-0.056282-0.354064-0.081864-0.404206-0.088004-0.807389-0.178055-1.205455-0.280386-0.093121-0.023536-0.183172-0.053212-0.275269-0.077772-0.420579-0.112564-0.839111-0.229221-1.252527-0.35918-0.077771-0.024559-0.152473-0.053212-0.230244-0.077771-0.426719-0.137123-0.850367-0.278339-1.268899-0.432859-0.053212-0.019443-0.104377-0.041956-0.15759-0.062422a30.668487 30.668487 0 0 1-1.305738-0.519839l-0.112564-0.051165a31.843242 31.843242 0 0 1-1.370207-0.62831c-0.451278-0.220011-0.89744-0.450255-1.336438-0.690732l-0.015349-0.008187a32.075533 32.075533 0 0 1-7.384178-5.578042l-0.022513 0.022513-351.620289-383.934252c-5.791913-5.78782-9.374508-13.785981-9.374508-22.621207 0-17.662265 14.3181-31.980365 31.980365-31.980366 8.834202 0 16.832364 3.582595 22.620184 9.373485l329.170998 359.807762 329.155648-359.807762c5.78782-5.79089 13.784958-9.373485 22.620184-9.373485 17.662265 0 31.980365 14.3181 31.980365 31.980366 0 8.835226-3.582595 16.833387-9.374508 22.621207l-351.62029 383.934252-0.022512-0.022513a32.106232 32.106232 0 0 1-7.383155 5.578042z"  horiz-adv-x="1024" />

    
    <glyph glyph-name="arrow-line-right" unicode="&#59113;" d="M761.058402 399.615653l0.008187-0.01535a31.67542 31.67542 0 0 0 1.319042-2.706645l0.051165-0.112564c0.183172-0.429789 0.354064-0.865717 0.519839-1.305738 0.019443-0.053212 0.042979-0.104377 0.062422-0.157589 0.154519-0.418532 0.295735-0.842181 0.432859-1.2689 0.024559-0.076748 0.053212-0.152473 0.077771-0.230244 0.128937-0.413416 0.245593-0.831948 0.35918-1.252527 0.024559-0.092098 0.054235-0.183172 0.077772-0.275269 0.103354-0.398066 0.192382-0.801249 0.280386-1.205455 0.025583-0.118704 0.057305-0.23536 0.081864-0.354064 0.078795-0.381693 0.143263-0.769526 0.207731-1.156336 0.024559-0.143263 0.054235-0.285502 0.076748-0.428765 0.058328-0.3776 0.101307-0.759293 0.146333-1.140987 0.01842-0.156566 0.042979-0.311085 0.059352-0.46765 0.039909-0.394996 0.065492-0.793062 0.091074-1.192152 0.00921-0.147356 0.025583-0.292666 0.033769-0.440022a32.772404 32.772404 0 0 0 0-3.305279c-0.007163-0.147356-0.023536-0.292666-0.033769-0.440022-0.025583-0.399089-0.051165-0.797156-0.091074-1.192151-0.016373-0.157589-0.040932-0.311085-0.059352-0.467651-0.045025-0.381693-0.088004-0.763386-0.146333-1.140987-0.022513-0.144286-0.052189-0.285502-0.076748-0.428765-0.064468-0.38681-0.12996-0.773619-0.207731-1.156336-0.024559-0.118704-0.056282-0.23536-0.081864-0.354064-0.088004-0.404206-0.178055-0.807389-0.280386-1.205455-0.023536-0.093121-0.053212-0.183172-0.077772-0.275269-0.112564-0.420579-0.229221-0.839111-0.35918-1.252527-0.024559-0.077771-0.053212-0.152473-0.077771-0.230244-0.137123-0.426719-0.278339-0.850367-0.432859-1.268899-0.019443-0.053212-0.041956-0.104377-0.062422-0.157589a30.668487 30.668487 0 0 0-0.519839-1.305739l-0.051165-0.112564a31.843242 31.843242 0 0 0-0.62831-1.370207c-0.220011-0.451278-0.450255-0.89744-0.690732-1.336438l-0.008187-0.015349a32.075533 32.075533 0 0 0-5.578042-7.384178l0.022513-0.022513-383.934253-351.620289c-5.78782-5.791913-13.785981-9.374508-22.621206-9.374508-17.662265 0-31.980365 14.3181-31.980366 31.980365 0 8.834202 3.582595 16.832364 9.373485 22.620184L686.149319 384.261966 326.341556 713.418638c-5.79089 5.78782-9.373485 13.784958-9.373484 22.620184 0 17.662265 14.3181 31.980365 31.980365 31.980365 8.835226 0 16.833387-3.582595 22.621207-9.374508l383.934252-351.62029-0.022512-0.022512a32.133861 32.133861 0 0 0 5.577018-7.386224z"  horiz-adv-x="1024" />

    
    <glyph glyph-name="arrow-refresh-down" unicode="&#59118;" d="M822.945915 247.303688c-12.489452 12.489452-32.737612 12.489452-45.227064 0L543.980365 39.629835V799.998529c0 17.662265-14.3181 31.980365-31.980365 31.980365s-31.980365-14.3181-31.980365-31.980365v-760.368694L246.281149 247.303688c-12.489452 12.489452-32.737612 12.489452-45.227064 0-12.489452-12.489452-12.489452-32.737612 0-45.227064L489.38698-54.102966a31.833009 31.833009 0 0 1 9.147334-6.402827 31.963992 31.963992 0 0 1 13.465686-2.963495c8.184403 0 16.368806 3.122107 22.61302 9.367345l288.331871 256.17959c12.490475 12.488429 12.490475 32.736589 0.001024 45.226041z"  horiz-adv-x="1024" />

    
    <glyph glyph-name="close" unicode="&#59114;" d="M822.00345 119.177566l0.022512 0.022512-575.521732 575.482847c-5.78782 5.791913-13.785981 9.374508-22.621207 9.374508-17.662265 0-31.980365-14.3181-31.980365-31.980365 0-8.834202 3.582595-16.832364 9.373485-22.620184L776.11226 74.660676c5.838985-6.277984 14.166651-10.209526 23.416316-10.209526 17.662265 0 31.980365 14.3181 31.980365 31.980365 0 8.900717-3.637854 16.947997-9.505491 22.746051zM776.783549 694.551942l-0.022513 0.022513L201.278189 119.052722c-5.791913-5.78782-9.374508-13.785981-9.374508-22.621207 0-17.662265 14.3181-31.980365 31.980366-31.980365 8.834202 0 16.832364 3.582595 22.620183 9.373485l574.797232 574.836117c6.277984 5.838985 10.209526 14.166651 10.209526 23.416316 0 17.662265-14.3181 31.980365-31.980366 31.980365-8.901741 0-16.950044-3.637854-22.747073-9.505491z"  horiz-adv-x="1024" />

    
    <glyph glyph-name="check-mark" unicode="&#59115;" d="M949.976076 649.516236c5.836939 5.78168 9.454326 13.800307 9.454326 22.664186 0 17.620309-14.284331 31.904641-31.90464 31.90464-9.428743 0-17.899672-4.093225-23.740704-10.595312L399.304312 158.244326c-1.939165-1.822508-6.519484-5.236258-13.672394-5.236257-7.782244 0-12.784164 4.322445-14.492063 6.071275L118.575606 438.848189l-0.128937-0.128937c-5.773494 5.773494-13.750165 9.344832-22.559808 9.344833-17.620309 0-31.904641-14.284331-31.904641-31.904641 0-8.961092 3.699252-17.054421 9.647731-22.849404l287.023062-317.792857c5.850242-6.773264 14.495132-11.06501 24.146957-11.06501a31.785937 31.785937 0 0 1 21.48022 8.315387l0.004093 0.004093a32.033577 32.033577 0 0 1 3.28993 3.488451l540.513404 573.145615-0.111541 0.110517z"  horiz-adv-x="1024" />

    
    <glyph glyph-name="arrow-refresh-up" unicode="&#59119;" d="M822.945915 521.205918c-12.489452-12.489452-32.737612-12.489452-45.227064 0L543.980365 728.879772v-760.368695c0-17.662265-14.3181-31.980365-31.980365-31.980365-17.662265 0-31.980365 14.3181-31.980365 31.980365V728.879772L246.281149 521.205918c-12.489452-12.489452-32.737612-12.489452-45.227064 0-12.489452 12.489452-12.489452 32.737612 0 45.227064L489.385956 822.612573a31.833009 31.833009 0 0 0 9.147334 6.402827 31.963992 31.963992 0 0 0 13.465687 2.963494c8.184403 0 16.368806-3.122107 22.614043-9.367345l288.331871-256.17959c12.489452-12.488429 12.489452-32.737612 0.001024-45.226041z"  horiz-adv-x="1024" />

    
    <glyph glyph-name="computer" unicode="&#59116;" d="M671.864988 384.254803H351.546611c-17.520025 0-31.722492-14.202467-31.722492-31.722492v-0.515746c0-17.520025 14.202467-31.722492 31.722492-31.722492h320.318377c17.520025 0 31.722492 14.202467 31.722492 31.722492v0.515746c0 17.520025-14.202467 31.722492-31.722492 31.722492zM479.725946 160.650119v-128.437207c0-17.520025 14.202467-31.722492 31.722492-31.722493h0.515746c17.520025 0 31.722492 14.202467 31.722492 31.722493V160.650119c0 17.520025-14.202467 31.722492-31.722492 31.722492h-0.515746c-17.520025 0-31.722492-14.202467-31.722492-31.722492zM671.864988 64.45115H351.546611c-17.520025 0-31.722492-14.202467-31.722492-31.722492v-0.515746c0-17.520025 14.202467-31.722492 31.722492-31.722493h320.318377c17.520025 0 31.722492 14.202467 31.722492 31.722493v0.515746c0 17.520025-14.202467 31.722492-31.722492 31.722492zM735.825718 576.136995H287.585881c-17.520025 0-31.722492-14.202467-31.722492-31.722492v-0.515746c0-17.520025 14.202467-31.722492 31.722492-31.722493h448.239837c17.520025 0 31.722492 14.202467 31.722492 31.722493v0.515746c0 17.519002-14.202467 31.722492-31.722492 31.722492zM895.469672 768.018164H127.937834c-35.322483 0-63.956637-28.634154-63.956637-63.956638v-511.693008c0-35.322483 28.634154-63.956637 63.956637-63.956637h767.531838c35.322483 0 63.956637 28.634154 63.956637 63.956637V704.061526c0 35.322483-28.634154 63.956637-63.956637 63.956638z m0-127.917368v-447.725115 31.714306c0-17.520025-14.202467-31.722492-31.722493-31.722492H159.66442c-17.520025 0-31.722492 14.202467-31.722493 31.722492v-31.714306V672.339034c0 17.520025 14.202467 31.722492 31.722493 31.722492h704.082759c17.520025 0 31.722492-14.202467 31.722493-31.722492v-32.238238z"  horiz-adv-x="1024" />

    
    <glyph glyph-name="code" unicode="&#59130;" d="M447.74558 831.978894h63.960731v-63.96073h-63.960731zM511.706311 768.018164h63.960731v-127.921462h-63.960731zM447.74558 704.057433h63.960731V512.175241h-63.960731zM511.706311 576.136995h63.960731v-63.960731h-63.960731zM63.981197 448.215534h383.76336v-63.960731H63.981197zM127.941927 384.254803h63.960731v-63.96073h-63.960731zM255.863389 384.254803h255.842922v-63.96073H255.863389zM511.706311 448.215534h63.960731v-63.960731h-63.960731zM447.74558 256.333342h127.921462v-127.921461H447.74558zM575.667042 384.254803h63.96073v-191.882192h-63.96073zM639.627772 320.294073h191.882192v-63.960731H639.627772zM703.58748 448.215534h63.96073v-127.921461h-63.96073zM895.469672 448.215534h63.96073v-127.921461h-63.96073zM831.508941 448.215534h127.921461v-63.960731H831.508941zM703.58748 192.372611h63.96073v-127.921461h-63.96073zM767.54821 128.411881h63.960731v-127.921462h-63.960731zM767.54821 0.490419h127.921462v-63.96073H767.54821zM895.469672 128.411881h63.96073v-191.882192h-63.96073zM831.508941 256.333342h127.921461v-63.960731H831.508941zM447.74558 64.45115h191.882192v-63.960731H447.74558zM447.74558 0.490419h63.960731v-63.96073h-63.960731zM639.627772 0.490419h63.960731v-63.96073h-63.960731zM63.981197 831.978894v-319.80263h319.803653V831.978894H63.981197z m255.842922-255.841899H127.941927V768.018164h191.882192v-191.881169zM191.902658 704.057433h63.960731v-63.960731h-63.960731zM63.981197 256.333342v-319.80263h319.803653V256.333342H63.981197z m255.842922-255.842923H127.941927V192.372611h191.882192v-191.882192zM191.902658 128.411881h63.960731v-63.960731h-63.960731zM639.627772 831.978894v-319.80263h319.803653V831.978894h-319.803653z m255.8419-255.841899H703.58748V768.018164h191.882192v-191.881169zM767.54821 704.057433h63.960731v-63.960731h-63.960731zM511.706311 512.176264h63.960731v-127.921461h-63.960731zM575.667042 128.411881H703.588503v-127.921462H575.667042z"  horiz-adv-x="1024" />

    
    <glyph glyph-name="events" unicode="&#59117;" d="M831.513034 704.05334H703.58748v32.242332c0 17.520025-14.202467 31.722492-31.722492 31.722492h-0.515747c-17.520025 0-31.722492-14.202467-31.722492-31.722492v-32.242332H383.78485v32.242332c0 17.520025-14.202467 31.722492-31.722492 31.722492h-0.515747c-17.520025 0-31.722492-14.202467-31.722492-31.722492v-32.242332H191.898565c-35.322483 0-63.956637-28.634154-63.956638-63.956638v-575.645552c0-35.322483 28.634154-63.956637 63.956638-63.956637h639.614469c35.322483 0 63.956637 28.634154 63.956638 63.956637V640.096702c0 35.322483-28.634154 63.956637-63.956638 63.956638z m-0.004093-607.879698c0-17.520025-14.202467-31.722492-31.722492-31.722492H223.62515c-17.520025 0-31.722492 14.202467-31.722492 31.722492V448.215534h639.606283v-352.041892z m0 416.002622H191.902658v96.19897c0 17.520025 14.202467 31.722492 31.722492 31.722492h96.198969v-32.238239c0-17.520025 14.202467-31.722492 31.722492-31.722492h0.515747c17.520025 0 31.722492 14.202467 31.722492 31.722492v32.238239h255.842922v-32.238239c0-17.520025 14.202467-31.722492 31.722493-31.722492h0.515746c17.520025 0 31.722492 14.202467 31.722492 31.722492v32.238239h96.198969c17.520025 0 31.722492-14.202467 31.722492-31.722492v-96.19897zM287.585881 320.294073h64.476477c17.520025 0 31.722492 14.202467 31.722492 31.722492v0.515746c0 17.520025-14.202467 31.722492-31.722492 31.722492h-64.476477c-17.520025 0-31.722492-14.202467-31.722492-31.722492v-0.515746c0-17.520025 14.202467-31.722492 31.722492-31.722492zM479.468073 320.294073h64.476477c17.520025 0 31.722492 14.202467 31.722492 31.722492v0.515746c0 17.520025-14.202467 31.722492-31.722492 31.722492h-64.476477c-17.520025 0-31.722492-14.202467-31.722493-31.722492v-0.515746c0-17.520025 14.202467-31.722492 31.722493-31.722492zM671.350265 320.294073h64.476476c17.520025 0 31.722492 14.202467 31.722493 31.722492v0.515746c0 17.520025-14.202467 31.722492-31.722493 31.722492h-64.476476c-17.520025 0-31.722492-14.202467-31.722493-31.722492v-0.515746c0-17.520025 14.202467-31.722492 31.722493-31.722492zM287.585881 192.372611h64.476477c17.520025 0 31.722492 14.202467 31.722492 31.722493v0.515746c0 17.520025-14.202467 31.722492-31.722492 31.722492h-64.476477c-17.520025 0-31.722492-14.202467-31.722492-31.722492v-0.515746c0-17.520025 14.202467-31.722492 31.722492-31.722493zM479.468073 192.372611h64.476477c17.520025 0 31.722492 14.202467 31.722492 31.722493v0.515746c0 17.520025-14.202467 31.722492-31.722492 31.722492h-64.476477c-17.520025 0-31.722492-14.202467-31.722493-31.722492v-0.515746c0-17.520025 14.202467-31.722492 31.722493-31.722493zM671.350265 192.372611h64.476476c17.520025 0 31.722492 14.202467 31.722493 31.722493v0.515746c0 17.520025-14.202467 31.722492-31.722493 31.722492h-64.476476c-17.520025 0-31.722492-14.202467-31.722493-31.722492v-0.515746c0-17.520025 14.202467-31.722492 31.722493-31.722493z"  horiz-adv-x="1024" />

    
    <glyph glyph-name="file" unicode="&#59129;" d="M767.54821 768.018164H257.905908c-36.452213 0-66.00325-29.551036-66.00325-66.00325v-637.563764c0-36.452213 29.551036-66.00325 66.00325-66.00325h509.642302c36.452213 0 66.00325 29.551036 66.00325 66.00325V702.014914c0 36.453237-29.550013 66.00325-66.00325 66.00325z m0-670.309562c0-18.367323-14.890128-33.257451-33.257451-33.257452H289.12084c-18.367323 0-33.257451 14.890128-33.257451 33.257452V670.799982c0 18.367323 14.890128 33.257451 33.257451 33.257451h445.169919c18.367323 0 33.257451-14.890128 33.257451-33.257451v-573.09138zM575.667042 544.15663c0-17.662265-14.3181-31.980365-31.980366-31.980366H351.804485c-17.662265 0-31.980365 14.3181-31.980366 31.980366 0 17.662265 14.3181 31.980365 31.980366 31.980365H543.686676c17.662265 0 31.980365-14.3181 31.980366-31.980365zM703.58748 416.235169c0-17.662265-14.3181-31.980365-31.980366-31.980366h-319.803653c-17.662265 0-31.980365 14.3181-31.980365 31.980366 0 17.662265 14.3181 31.980365 31.980365 31.980365h319.803653c17.662265 0 31.980365-14.3181 31.980366-31.980365zM703.58748 288.313707c0-17.662265-14.3181-31.980365-31.980366-31.980365h-319.803653c-17.662265 0-31.980365 14.3181-31.980365 31.980365 0 17.662265 14.3181 31.980365 31.980365 31.980366h319.803653c17.662265 0 31.980365-14.3181 31.980366-31.980366z"  horiz-adv-x="1024" />

    
    <glyph glyph-name="mail" unicode="&#59121;" d="M892.915499 704.057433H130.4961c-36.734646 0-66.514903-29.780257-66.514903-66.514903v-570.537208c0-36.734646 29.780257-66.514903 66.514903-66.514903h762.419399c36.734646 0 66.514903 29.780257 66.514903 66.514903V637.54253c0 36.735669-29.779234 66.514903-66.514903 66.514903z m-28.145013-63.960731c0.517793 0 1.032516-0.013303 1.544169-0.038885L511.87925 331.054137 157.434635 640.067027c0.401136 0.01535 0.802272 0.030699 1.206478 0.030699h706.129373z m0-575.645552H158.641113c-16.95516 0-30.699186 13.744026-30.699186 30.699186V581.122543l362.226859-315.797409c5.995551-5.995551 13.853519-8.991792 21.710464-8.991792 7.857968-0.001023 15.715937 2.996241 21.710464 8.991792l361.879958 315.49451v-485.668285c0-16.95516-13.744026-30.700209-30.699186-30.700209z"  horiz-adv-x="1024" />

    
    <glyph glyph-name="minus" unicode="&#59124;" d="M879.009791 400.58677H175.442778c-17.662265 0-31.980365-14.3181-31.980366-31.980365s14.3181-31.980365 31.980366-31.980365h703.567013c17.662265 0 31.980365 14.3181 31.980366 31.980365s-14.3181 31.980365-31.980366 31.980365z"  horiz-adv-x="1024" />

    
    <glyph glyph-name="menu" unicode="&#59123;" d="M927.450037 384.254803H95.961562c-17.662265 0-31.980365-14.3181-31.980365-31.980365s14.3181-31.980365 31.980365-31.980365h831.488475c17.662265 0 31.980365 14.3181 31.980365 31.980365s-14.3181 31.980365-31.980365 31.980365zM927.450037 704.057433H95.961562c-17.662265 0-31.980365-14.3181-31.980365-31.980365s14.3181-31.980365 31.980365-31.980366h831.488475c17.662265 0 31.980365 14.3181 31.980365 31.980366s-14.3181 31.980365-31.980365 31.980365zM927.450037 64.45115H95.961562c-17.662265 0-31.980365-14.3181-31.980365-31.980365s14.3181-31.980365 31.980365-31.980366h831.488475c17.662265 0 31.980365 14.3181 31.980365 31.980366s-14.3181 31.980365-31.980365 31.980365z"  horiz-adv-x="1024" />

    
    <glyph glyph-name="phone" unicode="&#59122;" d="M703.591573 831.978894H255.859295c-35.322483 0-63.956637-28.634154-63.956637-63.956637v-767.535931c0-35.322483 28.634154-63.956637 63.956637-63.956637h447.732278c35.322483 0 63.956637 28.634154 63.956637 63.956637V768.022257c0 35.322483-28.634154 63.956637-63.956637 63.956637z m-0.004093-799.765982c0-17.520025-14.202467-31.722492-31.722492-31.722493H287.585881c-17.520025 0-31.722492 14.202467-31.722492 31.722493V736.295672c0 17.520025 14.202467 31.722492 31.722492 31.722492h384.279107c17.520025 0 31.722492-14.202467 31.722492-31.722492v-704.08276zM575.667042 671.819195c0-17.520025-14.202467-31.722492-31.722492-31.722493H415.507342c-17.520025 0-31.722492 14.202467-31.722492 31.722493v0.515746c0 17.520025 14.202467 31.722492 31.722492 31.722492h128.437208c17.520025 0 31.722492-14.202467 31.722492-31.722492v-0.515746zM479.725946 64.45115m-31.980366 0a31.980365 31.980365 0 1 1 63.960731 0 31.980365 31.980365 0 1 1-63.960731 0ZM255.863389 160.50174h447.724091v-31.722492H255.863389z"  horiz-adv-x="1024" />

    
    <glyph glyph-name="plus" unicode="&#59125;" d="M863.782995 383.87311h-319.803653V703.67574h-0.00614c0.001023 0.084934 0.00614 0.168846 0.00614 0.254803 0 17.662265-14.3181 31.980365-31.980365 31.980365-17.662265 0-31.980365-14.3181-31.980366-31.980365 0-0.084934 0.00614-0.168846 0.00614-0.254803h-0.00614V383.87311H160.215982c-17.662265 0-31.980365-14.3181-31.980366-31.980365s14.3181-31.980365 31.980366-31.980366h319.802629v-319.802629c0-17.662265 14.3181-31.980365 31.980366-31.980366 17.662265 0 31.980365 14.3181 31.980365 31.980366V319.912379h319.803653c17.662265 0 31.980365 14.3181 31.980365 31.980366s-14.3181 31.980365-31.980365 31.980365z"  horiz-adv-x="1024" />

    
    <glyph glyph-name="arrow-sanjiao-left-s" unicode="&#59165;" d="M639.627772 128.158101L383.78485 384 639.627772 639.842922z"  horiz-adv-x="1024" />

    
    <glyph glyph-name="arrow-sanjiao-down-s" unicode="&#59164;" d="M255.863389 448.215534l255.842922-255.842923 255.841899 255.842923z"  horiz-adv-x="1024" />

    
    <glyph glyph-name="d-solid" unicode="&#59170;" d="M447.87247-39.022503c0-20.500916-13.753235-29.968545-30.719652-21.145599L94.573959 107.576343c-16.965393 8.822946-30.719652 32.594349-30.719652 53.095266V550.466336c0 20.500916 13.753235 29.968545 30.719652 21.145599l322.578859-167.744445c16.965393-8.822946 30.719652-32.594349 30.719652-53.095266v-389.794727zM511.579421-39.022503c0-20.500916 13.753235-29.968545 30.719652-21.145599l322.57886 167.744445c16.966417 8.822946 30.719652 32.594349 30.719652 53.095266V550.466336c0 20.500916-13.753235 29.968545-30.719652 21.145599L542.299073 403.86749c-16.966417-8.822946-30.719652-32.594349-30.719652-53.095266v-389.794727zM850.239538 634.389724c18.150382 9.531074 16.565281 25.185612-1.01512 34.965349L511.706311 823.792445c-17.581424 9.779737-46.548152 9.981329-64.698534 0.450254L107.185184 672.481274c-18.150382-9.531074-18.611893-25.185612-1.031492-34.96535l341.443509-176.735213c17.581424-9.779737 46.548152-9.981329 64.698534-0.450255l337.943803 174.059268z"  horiz-adv-x="1024" />

    
    <glyph glyph-name="arrow-sanjiao-right-" unicode="&#59166;" d="M447.74558 128.158101l255.8419 255.841899L447.74558 639.842922z"  horiz-adv-x="1024" />

    
    <glyph glyph-name="check-mark-solid" unicode="&#59169;" d="M823.74921 768.018164L381.449665 334.10359 199.246927 516.306328 63.981197 381.040598l180.908256-180.908256 135.681192-135.681192 578.859757 567.885822z"  horiz-adv-x="1024" />

    
    <glyph glyph-name="arrow-sanjiao-up-s" unicode="&#59167;" d="M767.54821 320.294073L511.706311 576.136995 255.863389 320.294073z"  horiz-adv-x="1024" />

    
    <glyph glyph-name="comment-solid" unicode="&#59168;" d="M910.990157 784.731824H143.462412c-35.322483 0-63.956637-28.634154-63.956637-63.956638v-511.693008c0-35.322483 28.634154-63.956637 63.956637-63.956637h127.921462v-160.1597c0-0.048095 0.00921-0.093121 0.010233-0.141216 0.214894-17.477047 14.44192-31.581276 31.970132-31.581276 10.175757 0 19.234063 4.758374 25.091468 12.165064l180.350554 179.717128H910.989133c35.322483 0 63.956637 28.634154 63.956638 63.956637V720.775186c0.001023 35.322483-28.633131 63.956637-63.955614 63.956638zM335.344604 400.968463c-35.32453 0-63.960731 28.636201-63.96073 63.960731s28.636201 63.960731 63.96073 63.960731 63.960731-28.636201 63.960731-63.960731-28.636201-63.960731-63.960731-63.960731z m191.882192 0c-35.32453 0-63.960731 28.636201-63.96073 63.960731s28.636201 63.960731 63.96073 63.960731 63.960731-28.636201 63.960731-63.960731-28.636201-63.960731-63.960731-63.960731z m191.881169 0c-35.32453 0-63.960731 28.636201-63.960731 63.960731s28.636201 63.960731 63.960731 63.960731 63.960731-28.636201 63.96073-63.960731-28.636201-63.960731-63.96073-63.960731z"  horiz-adv-x="1024" />

    
    <glyph glyph-name="delete-solid" unicode="&#59173;" d="M831.457776 576.136995c0.020466 0.680499 0.051165 1.357927 0.051165 2.042519v59.875693c0 36.452213-29.551036 66.00325-66.00325 66.003249H639.627772c0 35.32453-28.636201 63.960731-63.96073 63.960731H447.74558c-35.32453 0-63.960731-28.636201-63.96073-63.960731H257.905908c-36.452213 0-66.00325-29.551036-66.00325-66.003249v-59.875693c0-0.684592 0.030699-1.363044 0.051165-2.042519h639.503953zM765.505691 512.176264H255.863389V66.494693c0-36.452213 29.551036-66.00325 66.003249-66.00325h379.679346c36.452213 0 66.00325 29.551036 66.00325 66.00325V512.176264h-2.043543zM447.74558 160.392246c0-17.662265-14.3181-31.980365-31.980365-31.980365-17.662265 0-31.980365 14.3181-31.980365 31.980365V352.274438c0 17.662265 14.3181 31.980365 31.980365 31.980365 17.662265 0 31.980365-14.3181 31.980365-31.980365v-191.882192z m191.882192 0c0-17.662265-14.3181-31.980365-31.980365-31.980365-17.662265 0-31.980365 14.3181-31.980365 31.980365V352.274438c0 17.662265 14.3181 31.980365 31.980365 31.980365 17.662265 0 31.980365-14.3181 31.980365-31.980365v-191.882192z"  horiz-adv-x="1024" />

    
    <glyph glyph-name="contrast-solid" unicode="&#59183;" d="M853.550956 768.055003H169.897482c-23.171746 0-41.955554-18.783809-41.955555-41.955554v-683.690314c0-23.171746 18.783809-41.955554 41.955555-41.955555h683.653474c23.171746 0 41.955554 18.783809 41.955555 41.955555V726.099449c0 23.171746-18.783809 41.955554-41.955555 41.955554z m-22.042015-703.603853H575.667042V704.057433h255.842922v-639.606283z"  horiz-adv-x="1024" />

    
    <glyph glyph-name="eye-open-solid" unicode="&#59171;" d="M511.706311 640.096702c-247.27171 0-447.724091-157.276023-447.724091-255.842922 0-91.758844 200.453405-255.842922 447.724091-255.842923s447.724091 162.54912 447.724091 255.842923c0 98.567923-200.453405 255.842922-447.724091 255.842922zM319.824119 384.254803c0 105.97359 85.908602 191.882192 191.882192 191.882192S703.588503 490.228393 703.588503 384.254803s-85.908602-191.882192-191.882192-191.882192-191.882192 85.908602-191.882192 191.882192z m319.803653 0c0-70.64906-57.272401-127.921461-127.921461-127.921461S383.78485 313.605743 383.78485 384.254803s57.272401 127.921461 127.921461 127.921461 127.921461-57.272401 127.921461-127.921461z"  horiz-adv-x="1024" />

    
    <glyph glyph-name="eye-close-solid" unicode="&#59172;" d="M850.207815 767.990534l45.226041-45.227064-722.3191-722.319099-45.227064 45.22604zM319.824119 384.254803c0 105.97359 85.908602 191.882192 191.882192 191.882192 17.186428 0 33.840736-2.272763 49.690726-6.510274l60.158125 60.158125c-35.148521 6.612605-71.947636 10.31288-109.848851 10.31288-247.27171 0-447.724091-157.276023-447.724091-255.842923 0-47.994084 54.838979-115.77277 142.532227-169.510672l119.82097 119.82097a192.084807 192.084807 0 0 0-6.511298 49.689702zM818.410622 555.277922l-121.333416-121.333416a192.089923 192.089923 0 0 0 6.510274-49.689703c0-105.97359-85.908602-191.882192-191.882192-191.882192a192.147228 192.147228 0 0 0-49.690726 6.510274l-59.818387-59.818387c35.045167-6.817266 71.728648-10.653641 109.50809-10.653641 247.27171 0 447.724091 162.54912 447.724091 255.842923 0.002047 51.257407-54.209646 118.388341-141.017734 171.024142z"  horiz-adv-x="1024" />

    
    <glyph glyph-name="heart-solid" unicode="&#59175;" d="M734.693942 768.018164c-62.055334 0-118.236891-25.159006-158.911267-65.828265l-55.891961-55.636134c-5.489014-5.483898-14.377452-5.483898-19.86442 0 0 0-55.771211 55.759955-55.895031 55.636134-40.671305 40.669258-96.855932 65.828264-158.911266 65.828265-124.121925 0-224.736461-100.617605-224.736461-224.736461 0-46.888913 14.388708-90.394776 38.95829-126.414131 0 0 10.31288-16.352433 22.493294-28.532847 12.180414-12.180414 348.299661-371.386472 348.299661-371.386472 10.969842-10.972912 25.347295-16.45681 39.7227-16.45681 14.377452 0 28.751834 5.483898 39.724746 16.45681 0 0 336.116177 359.206058 348.297615 371.386472s22.496363 28.532847 22.496363 28.532847c24.566512 36.019355 38.95522 79.526241 38.95522 126.414131-0.001023 124.118855-100.612489 224.736461-224.737483 224.736461z"  horiz-adv-x="1024" />

    
    <glyph glyph-name="giftbox-solid" unicode="&#59204;" d="M757.316172 719.911516c0 61.892629-50.173726 112.067378-112.067379 112.067378-61.892629 0-112.067378-50.173726-112.067378-112.067378l-0.001023-15.854083h224.031402c0.068562 1.610684 0.104377 14.227026 0.104378 15.854083zM500.652558 725.189729c0 58.69582-47.582715 106.278535-106.277512 106.278536-58.69582 0-106.278535-47.582715-106.278535-106.278536 0-3.418866 0.169869-17.795295 0.487093-21.132296h212.072023c-0.002047 3.768837-0.00307 18.194384-0.003069 21.132296zM915.428236 640.047584H751.101633c-0.059352-0.170892-0.110517 0.169869-0.169869 0H543.980365v-191.83205h374.398062c22.924105 1.51961 41.051975 20.583804 41.051975 43.892673v103.93721c0 24.301476-19.699668 44.002167-44.002166 44.002167zM297.000298 640.047584c-0.074701 0.170892-0.144286-0.170892-0.217964 0H107.984387c-24.301476 0-44.002167-19.700691-44.002167-44.002167v-103.93721c0-23.308869 18.127869-42.373063 41.051975-43.892673h374.986463V640.047584H297.000298zM851.467505-63.469288c24.301476 0 44.002167 19.700691 44.002167 44.002167V372.123508c0 4.209882-0.603751 8.276501-1.707898 12.131295H543.980365v-447.724091h307.48714zM129.649825 384.254803a43.9817 43.9817 0 0 1-1.707898-12.131295v-391.590629c0-24.301476 19.700691-44.002167 44.002167-44.002167h308.075541V384.254803h-350.36981z"  horiz-adv-x="1024" />

    
    <glyph glyph-name="input_delete-solid" unicode="&#59174;" d="M511.706311 768.018164c-211.94718 0-383.76336-171.817204-383.76336-383.763361S299.760155 0.491443 511.706311 0.491443s383.76336 171.817204 383.763361 383.76336-171.817204 383.76336-383.763361 383.763361z m182.610015-521.107425c12.388145-12.388145 12.388145-32.473599 0-44.862768l-0.364297-0.364297c-12.388145-12.388145-32.473599-12.388145-44.862768 0L511.763616 339.00932 374.437971 201.683674c-12.388145-12.388145-32.473599-12.388145-44.862767 0l-0.364297 0.364297c-12.388145 12.388145-12.388145 32.473599 0 44.862768l137.325645 137.325645-137.325645 137.325645c-12.388145 12.388145-12.388145 32.473599 0 44.862767l0.364297 0.364297c12.388145 12.388145 32.473599 12.388145 44.862767 0l137.325645-137.325645L649.089261 566.789093c12.388145 12.388145 32.473599 12.388145 44.862768 0l0.364297-0.364297c12.388145-12.388145 12.388145-32.473599 0-44.862767L556.99068 384.236384l137.325646-137.325645z"  horiz-adv-x="1024" />

    
    <glyph glyph-name="location-solid" unicode="&#59211;" d="M511.717567 831.974801c-176.35966 0-319.795467-141.665487-319.795466-319.817979 0-186.559976 159.91206-420.089707 276.493241-554.182728 0.435928-0.523933 19.150152-21.444405 42.284036-21.444405h2.029216c23.134907 0 41.84299 20.924565 42.289152 21.444405 116.605741 134.093021 276.488125 367.627868 276.488125 554.182728 0.001023 178.152493-143.434783 319.817979-319.788304 319.817979z m-0.011256-447.724091c-70.64906 0-127.921461 57.272401-127.921461 127.921461s57.272401 127.921461 127.921461 127.921462 127.921461-57.272401 127.921461-127.921462-57.272401-127.921461-127.921461-127.921461z"  horiz-adv-x="1024" />

    
    <glyph glyph-name="lock-solid" unicode="&#59176;" d="M831.508941 512.176264h-63.960731v63.960731c0 141.29812-114.544803 255.842922-255.842922 255.842923S255.863389 717.434092 255.863389 576.136995v-63.960731h-63.964824c-35.322483 0-63.956637-28.634154-63.956638-63.956637V0.491443c0-35.322483 28.634154-63.956637 63.956638-63.956638h639.610376c35.322483 0 63.956637 28.634154 63.956637 63.956638V448.219627c0 35.32146-28.634154 63.956637-63.956637 63.956637zM575.667042 145.529747v-29.913287c0-28.257577-22.907733-51.16531-51.16531-51.16531h-25.590842c-28.257577 0-51.16531 22.907733-51.16531 51.16531v29.913287c-38.234813 22.118763-63.960731 63.455217-63.96073 110.803595 0 70.64906 57.272401 127.921461 127.921461 127.921461s127.921461-57.272401 127.921461-127.921461c0-47.348378-25.726941-88.684832-63.96073-110.803595z m127.920438 366.646517H319.824119v63.960731c0 105.97359 85.908602 191.882192 191.882192 191.882192S703.588503 682.110585 703.588503 576.136995v-63.960731zM511.706311 256.333342m-63.960731 0a63.960731 63.960731 0 1 1 127.921462 0 63.960731 63.960731 0 1 1-127.921462 0Z"  horiz-adv-x="1024" />

    
    <glyph glyph-name="mail-solid" unicode="&#59177;" d="M511.706311 325.036074L959.430402 583.530382v54.013171c0 36.734646-29.780257 66.514903-66.514903 66.514903H130.4961c-36.734646 0-66.514903-29.780257-66.514903-66.514903v-54.013171l447.725114-258.494308zM528.042371 260.612809a31.823799 31.823799 0 0 0-15.97074-4.28049c-0.121773-0.00307-0.243547 0.001023-0.36532-0.001024-0.121773 0.001023-0.243547-0.002047-0.36532 0.001024a31.82073 31.82073 0 0 0-15.97074 4.28049L63.981197 509.674281v-442.668959c0-36.734646 29.780257-66.514903 66.514903-66.514903h762.419399c36.734646 0 66.514903 29.780257 66.514903 66.514903V509.674281L528.042371 260.612809z"  horiz-adv-x="1024" />

    
    <glyph glyph-name="menu-solid" unicode="&#59214;" d="M63.97608 768.024304v-127.909182h895.454322V768.024304H63.97608z m255.843946-447.727161h639.610376V448.212464H319.820026v-127.915321z m0-319.780118h639.610376V128.458953H319.820026v-127.941928zM63.97608 320.297143h127.922485V448.212464H63.97608v-127.915321z m0-319.780118h127.922485V128.458953H63.97608v-127.941928z"  horiz-adv-x="1024" />

    
    <glyph glyph-name="pencil-solid" unicode="&#59178;" d="M811.833833 413.020964l68.045769 68.045769c25.77606 25.77606 25.77606 67.566862 0 93.342921L701.861162 752.429117c-25.77606 25.77606-67.566862 25.77606-93.342921 0l-68.045769-68.045769L811.833833 413.020964zM131.511219 271.497717a51.643194 51.643194 0 0 1-5.414313-23.073509v-197.937094c0-28.659737 23.233144-51.892881 51.892881-51.892881h197.937095a51.613518 51.613518 0 0 1 23.073508 5.414313L131.511219 271.497717zM174.772512 318.687482l320.465732 320.465732 271.359315-271.360338L446.131827 47.328168z"  horiz-adv-x="1024" />

    
    <glyph glyph-name="photo-solid" unicode="&#59179;" d="M895.473765 768.018164H127.937834c-35.322483 0-63.956637-28.634154-63.956637-63.956638v-639.614469c0-35.322483 28.634154-63.956637 63.956637-63.956638h767.535931c35.322483 0 63.956637 28.634154 63.956637 63.956638V704.061526c0 35.322483-28.634154 63.956637-63.956637 63.956638zM287.843754 640.096702c52.986795 0 95.941096-42.954301 95.941096-95.941096s-42.954301-95.941096-95.941096-95.941095-95.941096 42.954301-95.941096 95.941095 42.954301 95.941096 95.941096 95.941096zM895.469672 106.598063c0-17.520025-14.202467-31.722492-31.722493-31.722493H159.66442c-13.644765 0-25.27464 8.616238-29.753652 20.702508l164.476006 164.476005 102.55984-50.993394a31.624255 31.624255 0 0 1 19.172665-6.257518c9.833973-0.068562 19.518542 4.426823 25.742291 12.84454l223.12373 232.568846 230.484372-236.126882V106.598063z"  horiz-adv-x="1024" />

    
    <glyph glyph-name="phone-solid" unicode="&#59180;" d="M703.591573 831.978894H255.859295c-35.322483 0-63.956637-28.634154-63.956637-63.956637v-767.535931c0-35.322483 28.634154-63.956637 63.956637-63.956637h447.732278c35.322483 0 63.956637 28.634154 63.956637 63.956637V768.022257c0 35.322483-28.634154 63.956637-63.956637 63.956637zM383.78485 736.295672c0 17.520025 14.202467 31.722492 31.722492 31.722492h128.437208c17.520025 0 31.722492-14.202467 31.722492-31.722492v-0.515747c0-17.520025-14.202467-31.722492-31.722492-31.722492H415.507342c-17.520025 0-31.722492 14.202467-31.722492 31.722492v0.515747z m95.941096-703.824887c-17.662265 0-31.980365 14.3181-31.980366 31.980365 0 17.662265 14.3181 31.980365 31.980366 31.980365 17.662265 0 31.980365-14.3181 31.980365-31.980365 0-17.662265-14.3181-31.980365-31.980365-31.980365z m223.861534 128.030955H255.863389V671.967574h447.724091v-511.465834z"  horiz-adv-x="1024" />

    
    <glyph glyph-name="protect-solid" unicode="&#59182;" d="M888.079354 709.462536c-72.258721 7.049556-279.847639 47.584762-336.24409 128.655172-5.287423 5.287423-12.33698 10.574846-19.386536 10.574846s-15.861246-1.762133-21.148669-7.049556c-1.762133-1.762133-131.673925-116.318192-343.162664-126.893038-14.099113 0-24.673959-12.33698-24.673959-26.436093v-297.846572c-1.762133-17.624403-5.792936-158.616554 108.763122-266.123056 118.081349-112.793926 209.726605-170.953534 269.648347-170.953534 56.396451 0 156.854421 42.297338 271.41048 160.378687 98.694813 102.219079 117.706819 209.726605 117.706818 264.360924V683.026444c-0.002047 14.099113-8.813736 24.673959-22.912849 26.436092zM481.129922 247.805108l-0.980327 0.980327-0.297783-0.297782-144.507208 144.507208 67.799153 67.799153 77.688383-77.688384L651.64548 553.918971l67.799153-67.799152-238.314711-238.314711z"  horiz-adv-x="1024" />

    
    <glyph glyph-name="refresh-solid" unicode="&#59181;" d="M383.78485 162.227034v0.420579a266.712481 266.712481 0 0 0-3.045359 1.794879 64.399729 64.399729 0 0 1-4.978385 3.053546c-72.021314 45.263903-119.897717 125.416408-119.897717 216.759789 0 94.695732 51.451836 177.370687 127.921461 221.60719v-93.685729l191.882192 161.115468L383.78485 831.843818v-85.665055C234.732116 693.49589 127.941927 551.347402 127.941927 384.254803c0-136.791479 71.580269-256.852926 179.318039-324.808643a64.150042 64.150042 0 0 1 8.258081-5.067413 63.787792 63.787792 0 0 1 29.253254-7.072069c14.684444 0 28.206412 4.949732 39.013549 13.256932 15.242146 11.715833 25.075095 30.121018 25.075095 50.831712s-9.832949 39.115879-25.075095 50.831712zM639.627772 606.147496v-0.420579c1.020236-0.590448 2.033309-1.191128 3.04536-1.794879a64.399729 64.399729 0 0 1 4.978384-3.053546c72.021314-45.263903 119.897717-125.416408 119.897718-216.759788 0-94.695732-51.451836-177.370687-127.921462-221.607191v93.685729L447.74558 95.082798l191.882192-158.553109V22.195767c149.052734 52.682873 255.842922 194.83136 255.842923 361.92396 0 136.791479-71.580269 256.852926-179.318039 324.808644a64.150042 64.150042 0 0 1-8.258081 5.067412 63.787792 63.787792 0 0 1-29.253254 7.072069c-14.684444 0-28.206412-4.949732-39.013549-13.256932-15.242146-11.715833-25.075095-30.121018-25.075095-50.831712s9.832949-39.115879 25.075095-50.831712z"  horiz-adv-x="1024" />

    
    <glyph glyph-name="share-solid" unicode="&#59205;" d="M735.567845 448.215534c88.311325 0 159.901827 71.590502 159.901827 159.901826s-71.590502 159.901827-159.901827 159.901827-159.901827-71.590502-159.901827-159.901827a160.14742 160.14742 0 0 1 5.236258-40.709167L415.654698 512.328737c-29.179576 38.750559-75.568093 63.809281-127.811967 63.809281-88.311325 0-159.901827-71.590502-159.901827-159.901826s71.590502-159.901827 159.901827-159.901827c38.492686 0 73.806983 13.604856 101.402481 36.263925l73.245188-65.069994c-9.458419-20.414959-14.745842-43.155892-14.745843-67.135027 0-88.311325 71.590502-159.901827 159.901827-159.901826s159.901827 71.590502 159.901826 159.901826-71.590502 159.901827-159.901826 159.901827c-41.620933 0-79.523171-15.906272-107.972107-41.965787l-70.657247 62.770625c11.9471 22.401196 18.72855 47.975664 18.72855 75.136258a160.14742 160.14742 0 0 1-5.236257 40.709167l165.247578 55.079456c29.178553-38.750559 75.56707-63.809281 127.810944-63.809281z"  horiz-adv-x="1024" />

    
    <glyph glyph-name="star-solid" unicode="&#59206;" d="M700.44286 0.668475a74.228585 74.228585 0 0 0-35.84744 9.268084l-153.08456 84.937484-153.034419-84.913948c-24.813129-13.637602-55.911404-11.796674-78.751598 4.347005-23.466458 16.670681-35.579333 45.831838-30.884405 74.331939l29.979802 184.605461-129.370463 133.158743c-19.877723 20.396539-26.606984 49.982368-17.537422 77.197196 9.022491 26.971281 31.855522 46.369074 59.603493 50.610678l175.983084 26.959002 76.434833 163.568332c12.314467 26.295899 38.84368 43.278689 67.578118 43.278689 28.756951 0 55.277978-16.996093 67.558675-43.278689l76.456323-163.568332 175.960571-26.971282c27.728528-4.230348 50.581002-23.602557 59.615772-50.561559 9.057283-27.276227 2.340301-56.849776-17.513886-77.246315L744.17385 273.2445l30.010501-184.628997c4.647857-28.501124-7.466042-57.661258-30.861892-74.284867-12.710486-8.940626-27.520797-13.662161-42.879599-13.662161z"  horiz-adv-x="1024" />

    
    <glyph glyph-name="search" unicode="&#59184;" d="M946.498882 47.180811l-127.575584 127.576607c48.50983 68.038606 77.04677 151.299915 77.04677 241.228064 0 229.747591-186.246845 415.994436-415.994435 415.994436S63.981197 645.73205 63.981197 415.984459s186.246845-415.994436 415.994436-415.994436c89.949638 0 173.229366 28.551266 241.276158 77.081562l127.573537-127.587863c13.484106-13.485129 35.352159-13.485129 48.843429 0l48.830125 48.844451c13.484106 13.485129 13.484106 35.348066 0 48.852638zM191.986569 415.984459c0 159.052482 128.936581 287.989063 287.989064 287.989063s287.989063-128.936581 287.989063-287.989063-128.936581-287.989063-287.989063-287.989064-287.989063 128.937604-287.989064 287.989064z"  horiz-adv-x="1024" />

    
    <glyph glyph-name="member" unicode="&#59185;" d="M643.444704 282.822646c-14.94948 3.583618-27.109428 15.391549-31.589462 30.745235-5.030573 16.787338-0.051165 34.656311 12.882402 48.313356 56.951083 54.662971 93.750197 147.629315 93.750197 236.890268 0 137.369647-84.963067 233.287207-206.526727 233.287207-121.5698 0-206.462259-95.916537-206.462258-233.287207 0-89.050152 34.769898-178.297802 90.76726-233.971799 0.448208-0.672312 0.947582-1.280156 1.632173-1.836835 13.71435-14.45113 18.860557-32.441876 13.71435-49.530066-4.5312-15.507182-16.748453-27.315112-31.135115-30.668487C205.982328 249.062751 63.971987 149.91973 63.971987 62.009542c0-110.707404 215.313857-125.945457 447.989127-125.945457 232.66913 0 447.982988 15.238053 447.982988 125.945457 0 88.256066-142.336776 187.321316-316.499398 220.813104z"  horiz-adv-x="1024" />

    
    <glyph glyph-name="shoppingcart" unicode="&#59186;" d="M411.625942 95.807299c-8.722662 8.332782-19.134803 14.937201-30.584576 19.379372-11.845793 4.672416-24.536836 7.033184-37.355793 6.956436-13.145391 0.134053-26.187429-2.226714-38.366819-6.956436-11.462053-4.441149-21.861914-11.04659-30.596855-19.379372-8.761548-8.473999-15.800871-18.425651-20.741394-29.356609-10.374278-22.848381-10.374278-48.774867 0-71.603804 9.868765-22.067598 28.242228-39.673581 51.339272-49.267077 12.095479-5.036713 25.164123-7.54586 38.366819-7.455809 12.876262-0.038886 25.599028 2.483564 37.355793 7.455809 23.097044 9.593496 41.470507 27.200502 51.332109 49.267077 10.380418 22.828938 10.380418 48.755424 0 71.603804-4.934382 10.930957-11.967566 20.883633-20.748556 29.356609z m432.495248-2.002611c-8.857738 8.428973-19.455097 15.027252-31.109532 19.391653-12.024871 4.63967-24.888853 7.007601-37.854143 6.982018h-0.019443c-12.805654 0.057305-25.508977-2.304486-37.348629-6.982018-11.462053-4.441149-21.861914-11.040451-30.596856-19.391653-8.767688-8.473999-15.800871-18.406209-20.735253-29.337165-10.380418-22.848381-10.380418-48.749284 0-71.622224 9.861602-22.042016 28.242228-39.686884 51.351552-49.267077a95.141894 95.141894 0 0 1 37.348629-7.417947 98.56383 98.56383 0 0 1 37.854143 7.417947c11.621688 4.690836 22.175045 11.449773 31.109532 19.916609 8.773827 8.466835 15.814174 18.445094 20.747533 29.350468 10.360975 22.873963 10.360975 48.774867 0 71.622224-4.933359 10.929934-11.972683 20.863167-20.747533 29.337165z m173.229366 565.530171c-5.528923 8.121981-13.464663 14.547321-22.827914 18.387789-14.271028 5.625114-29.68202 8.179286-45.105291 7.455809H239.971443a2560.864694 2560.864694 0 0 1-6.226818 37.805024 7077.50801 7077.50801 0 0 1-4.1536 29.350469 217.773885 217.773885 0 0 1-4.14746 22.37459 1563.235294 1563.235294 0 0 1-5.190209 16.902971c-2.201132 6.861268-5.715165 13.273305-10.367115 18.918885-5.298679 6.316869-12.044314 11.42419-19.718087 14.911618-10.437723 4.389984-21.791305 6.41306-33.18889 5.970992H52.228525c-13.919011 0.690732-27.563776-3.986801-37.841863-12.909008-9.330506-8.588609-14.412244-20.506033-14.009062-32.845059 0.082888-7.347339 0.953721-14.688537 2.592035-21.900799 1.721201-7.91732 4.877077-15.481599 9.330506-22.36845 4.473895-6.930853 10.284227-13.011338 17.106609-17.894556 7.538697-5.170766 16.664541-7.801686 25.937742-7.455809h77.788668c16.587793-82.22777 31.454386-156.864654 44.593637-223.827764a37137.466302 37137.466302 0 0 1 16.594957-85.068468l15.045671-76.621075c4.486174-22.848381 8.281617-41.919738 11.404747-57.177234 3.123131-15.257495 5.030573-24.876574 5.701863-28.838815a277.156344 277.156344 0 0 1 8.818852-31.852452 139.647527 139.647527 0 0 1 15.039532-31.321356c5.913687-9.305947 13.875009-17.279548 23.327288-23.385617 10.380418-6.233981 22.4892-9.363252 34.750455-8.960069H851.916736c19.340487 0.013303 32.305777 4.825912 38.878473 14.431687 6.757914 10.265808 10.181897 22.201651 9.843182 34.316574 0 27.200502-16.587793 40.794102-49.777707 40.794101H327.07936l-14.508435 89.536223h544.516578c18.143219-0.588401 35.93442 4.863774 50.295499 15.430434 13.484106 10.265808 24.728194 28.646434 33.707706 55.194066 4.838192 12.594853 11.225669 29.836539 19.193132 51.731199a15165.565682 15165.565682 0 0 1 23.845081 66.170048 5744.530936 5744.530936 0 0 0 22.328541 61.190641c6.91141 18.573008 11.410887 30.835286 13.477966 36.806278a75.18947 75.18947 0 0 1 3.634783 21.381983c0.36532 8.197706-1.797949 16.306384-6.219655 23.36515z"  horiz-adv-x="1024" />

    
    <glyph glyph-name="Order-solid" unicode="&#59187;" d="M703.979214 832.006588h-63.991366c0 38.905039-26.014464 63.993412-64.003645 63.993412h-127.995012c-37.989181 0-39.723684-31.641619-39.723683-70.534379l-88.259048 6.540967v-127.999105h383.971731V832.006588z m-192.395699-83.654175c-23.819475 0-43.057612 19.725231-43.057612 44.031798 0 24.333174 19.224834 44.140269 43.057612 44.140269 23.736587 0 42.987004-19.808118 42.987004-44.140269 0-24.306568-19.250417-44.031798-42.987004-44.031798z m308.627818 6.617714l-52.228473 13.036908v-127.992965h-511.980046V768.007035h-64.003645c-66.717451 0-127.995011-96.063797-127.995012-158.55909V17.560045c0-74.239767 86.793675-145.554928 142.131973-145.554928H817.850567c66.723591 0 142.131972 55.1101 142.119693 141.10048v595.850138c-0.001023 82.777202-73.028174 146.014392-139.758927 146.014392z m-52.22745-626.953498h-511.980046v63.993412h511.980046v-63.993412z m0 127.992964h-511.980046v63.999553h511.980046v-63.999553z m0 128.000128h-511.980046v63.999553h511.980046v-63.999553z"  horiz-adv-x="1024" />

    
    <glyph glyph-name="information-solid" unicode="&#59188;" d="M512.00307 831.725114c-247.270686 0-447.728184-200.458521-447.728184-447.723067 0-247.278873 200.457498-447.726138 447.728184-447.726138s447.721021 200.447265 447.721021 447.726138c0 247.263523-200.449311 447.723068-447.721021 447.723067z m74.274634-745.911424H437.036681V235.055736h149.241023v-149.242046z m0 223.862558H437.036681V682.779827h149.241023v-373.103579z"  horiz-adv-x="1024" />

    
    <glyph glyph-name="information-mark-sol" unicode="&#59189;" d="M512.00307 831.725114c-247.270686 0-447.728184-200.458521-447.728184-447.723067 0-247.278873 200.457498-447.726138 447.728184-447.726138s447.721021 200.447265 447.721021 447.726138c0 247.263523-200.449311 447.723068-447.721021 447.723067z m-65.61644-692.848904l-0.130983 0.130983-0.130984-0.130983-228.016157 228.016157 105.529475 105.529475 122.617666-122.616642 258.355139 258.355139 105.529475-105.529475-363.753631-363.754654z"  horiz-adv-x="1024" />

    
    <glyph glyph-name="information-wrong-so" unicode="&#59190;" d="M512.00307 831.725114c-247.270686 0-447.728184-200.458521-447.728184-447.723067 0-247.278873 200.457498-447.726138 447.728184-447.726138s447.721021 200.447265 447.721021 447.726138c0 247.263523-200.449311 447.723068-447.721021 447.723067z m225.837538-583.151503l-90.454128-90.454128-135.680169 135.681192-135.681192-135.681192-90.454128 90.454128 135.681192 135.681192-135.681192 135.681192 90.454128 90.454128 135.681192-135.681192 135.681192 135.681192 90.454128-90.454128-135.682215-135.681192 135.681192-135.681192z"  horiz-adv-x="1024" />

    
    <glyph glyph-name="problem-solid" unicode="&#59191;" d="M512.00307 831.725114c-247.270686 0-447.728184-200.458521-447.728184-447.723067 0-247.278873 200.457498-447.726138 447.728184-447.726138s447.721021 200.447265 447.721021 447.726138c0 247.263523-200.449311 447.723068-447.721021 447.723067z m56.452733-744.844115H438.641225V213.314573h129.814578v-126.433574z m53.41249 291.404859c-58.821687-41.243333-66.935482-62.879096-66.935481-95.332229v-22.311145H448.107831v29.749558c0 51.385321 15.550161 90.600461 68.964698 131.166365 52.737108 41.243333 64.907289 69.64008 64.907289 94.655824 0 28.396747-24.340361 60.850903-62.203714 60.850903-48.004317 0-79.105662-29.749558-92.628654-96.008634l-118.997208 24.340361c27.721365 125.758192 92.628654 176.466084 230.556003 176.466084 110.207008 0 177.142489-70.992891 177.14249-148.069337 0.001023-58.82271-20.282952-102.094236-93.980442-155.50775z"  horiz-adv-x="1024" />

    
    <glyph glyph-name="box-solid" unicode="&#59192;" d="M0.019443 896h1023.959068v-255.903809H0.019443zM0.019443 608.115889v-736.115889h1023.959068V608.115889H0.019443z m703.566631-223.861086H319.82348V512.176008h383.762594v-127.921205z"  horiz-adv-x="1024" />

    
    <glyph glyph-name="wallet-solid" unicode="&#59193;" d="M830.231855 850.445478C818.533418 864.244762 803.90321 875.623927 787.526217 884.039597c-14.642488 5.984295-32.191166 9.574053-52.66957 10.765181-20.479427 1.209548-43.8763-5.38873-70.212108-20.358676-16.972557-9.011234-40.958854-22.797215-71.971172-39.583531-31.007201-17.389042-62.026682-34.764781-93.622284-51.552119-36.280298-19.782555-74.883501-57.677631-115.266233-79.251996h511.980557L830.231855 850.445478zM993.555617 617.30051c-19.890003 20.390399-43.8763 22.797215-72.554456 22.797216H102.410438c-28.677133 0-52.66343-2.406816-72.554456-22.797216-19.897166-20.370956-29.835516-45.567825-29.835516-74.937736v-563.015907c0-15.001669 2.336208-28.79379 8.185426-41.3692 5.849218-12.594853 13.458523-24.006763 23.397897-33.600259 9.951653-9.567913 21.067828-17.369599 33.94409-22.76447 12.876262-5.402033 48.560996-9.593496 62.602803-9.593495h792.268218c14.616906 0 30.417777 4.192485 42.717917 9.593495 12.274558 5.39487 22.808472 13.196557 31.583323 22.76447 9.363252 9.593496 16.383132 21.004383 21.061688 33.600259 5.273097 12.576433 7.609305 26.368554 7.609305 41.3692v149.065014H696.417173c-66.688865 0-120.750131 54.061266-120.750131 120.750131v14.34266c0 66.688865 54.061266 120.750131 120.750131 120.750131h326.97396V542.362774c0 29.369911-9.939373 54.56678-29.835516 74.937736zM703.58748 256.333342m-63.960731 0a63.960731 63.960731 0 1 1 127.921461 0 63.960731 63.960731 0 1 1-127.921461 0Z"  horiz-adv-x="1024" />

    
    <glyph glyph-name="fail-solid" unicode="&#59194;" d="M512 895.980557c-282.758945 0-511.980557-229.221612-511.980557-511.980557s229.221612-511.980557 511.980557-511.980557 511.980557 229.221612 511.980557 511.980557-229.221612 511.980557-511.980557 511.980557z m216.940914-694.981474c9.372461-9.372461 9.372461-24.567535 0-33.939997-9.372461-9.372461-24.567535-9.372461-33.939997 0L512 350.060003 329.510736 167.570739c-9.372461-9.372461-24.567535-9.372461-33.939997 0-9.372461 9.372461-9.372461 24.567535 0 33.939997l182.489264 182.489264-183.342701 183.342702c-9.372461 9.372461-9.372461 24.567535 0 33.939996 9.372461 9.372461 24.567535 9.372461 33.939996 0l183.342702-183.342701 183.17181 183.171809c9.372461 9.372461 24.567535 9.372461 33.939996 0 9.372461-9.372461 9.372461-24.567535 0-33.939996l-183.171809-183.17181 183.000917-183.000917z"  horiz-adv-x="1024" />

    
    <glyph glyph-name="success-solid" unicode="&#59195;" d="M512 895.980557c-282.758945 0-511.980557-229.221612-511.980557-511.980557s229.221612-511.980557 511.980557-511.980557 511.980557 229.221612 511.980557 511.980557-229.221612 511.980557-511.980557 511.980557zM752.733806 526.163837L438.127526 199.783395c-0.075725-0.077771-0.147356-0.157589-0.224105-0.234337l-0.032745-0.031723-0.01535-0.015349c-0.086981-0.086981-0.179079-0.167822-0.267083-0.252757-0.193405-0.186242-0.385786-0.373507-0.583284-0.552585-0.101307-0.092098-0.206708-0.177032-0.309039-0.267083-0.195451-0.170892-0.38988-0.342808-0.590448-0.506537-0.105401-0.085958-0.213871-0.165776-0.320294-0.249687-0.202615-0.159636-0.404206-0.322341-0.610914-0.474814-0.10847-0.079818-0.220011-0.154519-0.329505-0.23229-0.209778-0.149403-0.417509-0.300852-0.63138-0.443092-0.113587-0.075725-0.231267-0.145309-0.345877-0.220011-0.212848-0.137123-0.425695-0.275269-0.642636-0.405229-0.121773-0.072655-0.246617-0.13917-0.370437-0.209778-0.214894-0.122797-0.427742-0.248663-0.645707-0.364297-0.127913-0.068562-0.258896-0.12996-0.387833-0.195451-0.216941-0.110517-0.431835-0.223081-0.651846-0.327458-0.137123-0.064468-0.277316-0.121773-0.415462-0.184195-0.215918-0.097214-0.430812-0.196475-0.648776-0.286526-0.143263-0.059352-0.290619-0.11154-0.434905-0.167822-0.216941-0.084934-0.431835-0.171915-0.650823-0.25071-0.159636-0.057305-0.321318-0.105401-0.481977-0.158613-0.207731-0.069585-0.414439-0.14224-0.624217-0.205684-0.164752-0.050142-0.332575-0.091074-0.499373-0.138146-0.208754-0.058328-0.416486-0.119727-0.627287-0.172939-0.160659-0.039909-0.323365-0.071631-0.485047-0.108471-0.218988-0.050142-0.435928-0.103354-0.655939-0.146332-0.199545-0.039909-0.402159-0.069585-0.603751-0.104378-0.184195-0.031722-0.367367-0.067538-0.552585-0.095167-0.237407-0.034792-0.476861-0.060375-0.716315-0.088004-0.152473-0.017396-0.303922-0.040932-0.456394-0.056282-0.309038-0.030699-0.621147-0.050142-0.932232-0.068562-0.083911-0.005117-0.166799-0.014326-0.25071-0.018419a24.464181 24.464181 0 0 0-3.53143 0.082887l-0.032746 0.002047a23.743774 23.743774 0 0 0-2.25946 0.330528l-0.059352 0.010233a23.722284 23.722284 0 0 0-2.173502 0.537236l-0.084934 0.023536a23.64349 23.64349 0 0 0-2.079359 0.735757l-0.104377 0.039909a23.74582 23.74582 0 0 0-1.977027 0.924045c-0.039909 0.021489-0.080841 0.039909-0.120751 0.061399a23.382547 23.382547 0 0 0-1.867533 1.107217c-0.042979 0.027629-0.086981 0.053212-0.128937 0.081865a24.013927 24.013927 0 0 0-1.749854 1.282202c-0.045025 0.035816-0.091074 0.069585-0.136099 0.106424a24.306592 24.306592 0 0 0-1.622964 1.450025c-0.030699 0.029676-0.064468 0.055259-0.095167 0.084934l-0.034793 0.038886c-0.033769 0.033769-0.069585 0.064468-0.103354 0.099261a24.440645 24.440645 0 0 0-1.795902 2.012843l-155.092288 172.47826-0.149402 0.149402c-4.533246 4.532223-7.02909 10.558473-7.029091 16.968464s2.495844 12.435217 7.029091 16.968463a23.836895 23.836895 0 0 0 16.96744 7.028067c6.344498 0 12.313443-2.445702 16.829294-6.88992l140.79056-156.573012L718.845998 560.147836a23.843034 23.843034 0 0 0 16.920368 6.979971 23.840988 23.840988 0 0 0 16.968464-7.028067c9.355065-9.356089 9.355065-24.579815-0.001024-33.935903z"  horiz-adv-x="1024" />

    
    <glyph glyph-name="servicefile-solid" unicode="&#59199;" d="M870.969983 895.939711H152.442458c-48.501724 0-87.820156-39.318431-87.820156-87.820156v-848.30553c0-48.501724 39.318431-87.820156 87.820156-87.820156h718.527525c48.501724 0 87.820156 39.318431 87.820156 87.820156V808.119555c0 48.501724-39.318431 87.820156-87.820156 87.820156zM288.164517 640.462894h319.344999c17.636991 0 31.934602-14.297611 31.934602-31.934602 0-17.636991-14.297611-31.934602-31.934602-31.934602H288.164517c-17.636991 0-31.934602 14.297611-31.934603 31.934602 0 17.636991 14.297611 31.934602 31.934603 31.934602z m447.083407-447.083407H288.164517c-17.636991 0-31.934602 14.297611-31.934603 31.934602 0 17.636991 14.297611 31.934602 31.934603 31.934602h447.083407c17.636991 0 31.934602-14.297611 31.934603-31.934602 0-17.636991-14.297611-31.934602-31.934603-31.934602z m0 191.607612H288.164517c-17.636991 0-31.934602 14.297611-31.934603 31.934602s14.297611 31.934602 31.934603 31.934602h447.083407c17.636991 0 31.934602-14.297611 31.934603-31.934602s-14.297611-31.934602-31.934603-31.934602z"  horiz-adv-x="1024" />

    
    <glyph glyph-name="bg-solid" unicode="&#59196;" d="M511.991302 383.969813m-511.969813 0a511.969813 511.969813 0 1 1 1023.939626 0 511.969813 511.969813 0 1 1-1023.939626 0Z"  horiz-adv-x="1024" />

    
    <glyph glyph-name="menu1" unicode="&#59197;" d="M511.745197 799.450037v-831.488475c0-17.662265 14.3181-31.980365 31.980365-31.980365s31.980365 14.3181 31.980365 31.980365V799.450037c0 17.662265-14.3181 31.980365-31.980365 31.980365s-31.980365-14.3181-31.980365-31.980365zM191.942567 799.450037v-831.488475c0-17.662265 14.3181-31.980365 31.980365-31.980365s31.980365 14.3181 31.980366 31.980365V799.450037c0 17.662265-14.3181 31.980365-31.980366 31.980365s-31.980365-14.3181-31.980365-31.980365zM831.54885 799.450037v-831.488475c0-17.662265 14.3181-31.980365 31.980365-31.980365s31.980365 14.3181 31.980366 31.980365V799.450037c0 17.662265-14.3181 31.980365-31.980366 31.980365s-31.980365-14.3181-31.980365-31.980365z"  horiz-adv-x="1024" />

    
    <glyph glyph-name="price-tag-solid1" unicode="&#59198;" d="M800.007483 310.740486l75.290777 75.290777c25.77606 25.77606 25.77606 67.566862 0 93.342921L606.824669 747.846752c-25.77606 25.77606-67.566862 25.77606-93.342922 0l-75.290776-75.290777 361.816512-361.815489zM405.732721 640.096702L147.261948 381.626953c-0.11768-0.11768-0.224104-0.240477-0.340761-0.358157-8.201799-7.773034-14.143115-17.897625-16.752545-29.29828a66.320475 66.320475 0 0 1-1.487888-26.913976v-265.439488c0-32.245402 26.140357-58.385758 58.385759-58.385759h265.439488a66.320475 66.320475 0 0 1 26.913976 1.487887c11.400654 2.609431 21.524223 8.550747 29.29828 16.752546 0.11768 0.116657 0.2415 0.223081 0.358157 0.340761l258.46975 258.46975-361.813443 361.814465z m-40.681538-492.951155c-24.977881-24.977881-65.476247-24.977881-90.454128 0-24.977881 24.977881-24.977881 65.476247 0 90.454128 24.977881 24.977881 65.476247 24.977881 90.454128 0 24.977881-24.977881 24.977881-65.475224 0-90.454128z"  horiz-adv-x="1024" />

    
    <glyph glyph-name="plus-solid" unicode="&#59200;" d="M512 831.724091c-247.27171 0-447.724091-200.453405-447.724091-447.724091s200.453405-447.724091 447.724091-447.724091 447.724091 200.453405 447.724091 447.724091S759.270686 831.724091 512 831.724091zM767.841899 320.039269H575.960731v-191.882191c0-35.178197-28.782533-63.960731-63.960731-63.960731-35.178197 0-63.960731 28.782533-63.960731 63.960731V320.039269H256.157078c-32.897248 0-60.194964 25.172309-63.598481 57.204863a31.841196 31.841196 0 0 0-0.655939 6.444783v0.515746c0 2.146896 0.215918 4.242627 0.62217 6.269797 3.27151 32.16763 30.637788 57.486272 63.63225 57.486273h191.882191V639.842922c0 33.109072 25.498744 60.544935 57.828057 63.657832a31.870872 31.870872 0 0 0 5.903453 0.556679h0.515747c2.033309 0 4.018523-0.199545 5.945409-0.564865 32.282241-3.158946 57.729819-30.574343 57.729819-63.650669v-191.882192H767.841899c35.178197 0 63.960731-28.782533 63.960731-63.96073 0-35.177174-28.78151-63.959707-63.960731-63.959708z"  horiz-adv-x="1024" />

    
    <glyph glyph-name="comment--solid" unicode="&#59201;" d="M945.082626 831.984011H78.367859c-43.199894 0-78.307484-37.59013-78.34637-83.923388h0.037863l0.531096-293.710368c-0.045025-0.972141-0.531096-1.822508-0.531096-2.859118 0-2.552126 0.320295-5.008061 0.87595-7.164167v-207.311602c-0.261966-1.343601-0.454348-2.680039-0.87595-4.067643v-84.57114c0-46.314839 35.108612-83.923388 78.346369-83.923388h497.261321l118.808919-127.921462 137.03298 128.055515h113.573685c43.25106 0 78.307484 37.552268 78.307484 83.853803V748.130208c0.001023 46.308699-35.056424 83.853803-78.307484 83.853803zM831.508941 368.389464c0-26.452465-21.642926-48.095391-48.095391-48.095391H239.998049c-26.452465 0-48.095391 21.642926-48.095391 48.095391s21.642926 48.095391 48.095391 48.095391h543.415501c26.452465 0 48.095391-21.642926 48.095391-48.095391z m0 191.882192c0-26.452465-21.642926-48.095391-48.095391-48.095392H239.998049c-26.452465 0-48.095391 21.642926-48.095391 48.095392s21.642926 48.095391 48.095391 48.095391h543.415501c26.452465 0 48.095391-21.642926 48.095391-48.095391z"  horiz-adv-x="1024" />

    
    <glyph glyph-name="icon" unicode="&#59202;" d="M568.961913-127.998977H1.177884v227.117294h567.785052c125.431594 0 227.118317 101.679563 227.118318 227.109111V894.017595h227.113202v-567.790167c0-250.86012-203.369354-454.226405-454.232543-454.226405z"  horiz-adv-x="1024" />

    
    <glyph glyph-name="minus-solid" unicode="&#59203;" d="M512 831.724091c-247.27171 0-447.724091-200.453405-447.724091-447.724091s200.453405-447.724091 447.724091-447.724091 447.724091 200.453405 447.724091 447.724091S759.270686 831.724091 512 831.724091z m255.54821-511.430018H255.863389c-35.178197 0-63.960731 28.782533-63.960731 63.96073 0 35.178197 28.782533 63.960731 63.960731 63.960731h511.684821c35.178197 0 63.960731-28.782533 63.960731-63.960731 0-35.178197-28.782533-63.960731-63.960731-63.96073z"  horiz-adv-x="1024" />

    
    <glyph glyph-name="share-qq-zone" unicode="&#59213;" d="M958.998567 485.116979c0-8.293897-4.65809-17.333784-13.969153-27.125801L749.886969 257.970632l46.23809-282.510282c0.367367-2.631944 0.551562-6.402827 0.551562-11.322883 0-7.90504-1.87879-14.59644-5.641487-20.071128-3.761674-5.470595-9.233292-8.208962-16.412808-8.208962-6.812149 0-13.978363 2.254344-21.502733 6.765077l-241.385653 133.336798-241.382582-133.336798c-7.890714-4.510734-15.056927-6.765077-21.506827-6.765077-7.519254 0-13.164834 2.738367-16.926507 8.208962-3.75758 5.474688-5.641487 12.167111-5.641487 20.071128 0 2.269693 0.358157 6.040576 1.065261 11.322883l46.243207 282.510282L77.890998 457.991178c-8.971325 10.178827-13.45443 19.216667-13.45443 27.125801 0 13.935384 10.036587 22.602787 30.106692 26.00221l269.870404 41.262776L485.380736 809.470251c6.812149 15.456017 15.595186 23.180955 26.353204 23.180955 10.759041 0 19.541055-7.724938 26.353205-23.180955L659.057287 552.380942l269.872451-41.262776c20.069081-3.399423 30.105668-12.066827 30.105668-26.002211h-0.036839z m0 0M703.881169 192.372611l-230.288921 50.945299 221.210148 205.43793H320.117808l253.397221-41.863457-253.397221-214.519772z"  horiz-adv-x="1024" />

    
    <glyph glyph-name="share-weixin" unicode="&#59208;" d="M886.348943 68.785875c45.200458 41.015136 73.081459 97.169063 73.081459 159.120021 0 125.598556-114.544803 227.415476-255.842922 227.415476s-255.842922-101.81692-255.842923-227.415476S562.290383 0.490419 703.58748 0.490419c36.384675 0 70.986751 6.766101 102.325503 18.937305l108.999506-36.33351-28.563546 85.691661zM607.647407 256.333342c-17.662265 0-31.980365 14.3181-31.980365 31.980365 0 17.662265 14.3181 31.980365 31.980365 31.980366 17.662265 0 31.980365-14.3181 31.980365-31.980366 0-17.662265-14.3181-31.980365-31.980365-31.980365z m191.881169 63.960731c17.662265 0 31.980365-14.3181 31.980365-31.980366 0-17.662265-14.3181-31.980365-31.980365-31.980365-17.662265 0-31.980365 14.3181-31.980366 31.980365 0 17.662265 14.3181 31.980365 31.980366 31.980366zM701.615569 512.153752c-17.668405 143.917784-153.212474 255.864412-317.830719 255.864412-176.62265 0-319.803653-128.862903-319.803653-287.823288 0-86.302575 42.216497-163.722852 109.062951-216.476333l-45.102221-135.306662 130.422422 86.948281c38.512129-14.791891 80.901565-22.98755 125.419478-22.987551 0.828878 0 1.651616 0.022513 2.47947 0.028653a255.515465 255.515465 0 0 0-2.47947 35.505655c0.001023 156.411329 142.118811 283.301298 317.831742 284.246833z m-221.889623 63.983243c17.662265 0 31.980365-14.3181 31.980365-31.980365 0-17.662265-14.3181-31.980365-31.980365-31.980366-17.662265 0-31.980365 14.3181-31.980366 31.980366 0 17.662265 14.3181 31.980365 31.980366 31.980365z m-191.882192-63.960731c-17.662265 0-31.980365 14.3181-31.980365 31.980366 0 17.662265 14.3181 31.980365 31.980365 31.980365 17.662265 0 31.980365-14.3181 31.980365-31.980365 0-17.662265-14.3181-31.980365-31.980365-31.980366z"  horiz-adv-x="1024" />

    
    <glyph glyph-name="share-weibo" unicode="&#59209;" d="M727.170594 367.455185c-34.83539 6.758937-17.905812 25.507954-17.905812 25.507954s34.086329 56.180534-6.744611 97.0258c-50.600445 50.586119-173.558871-6.437619-173.558871-6.437619-46.960545-14.572904-34.514071 6.65149-27.875884 42.769083 0 42.558281-14.572904 114.582665-139.674133 72.040756-124.978433-42.772152-232.282321-192.631252-232.28232-192.631252-74.619488-99.579973-64.744583-176.542832-64.744584-176.542832 18.642592-169.905668 199.173249-216.544895 339.585186-227.584322C551.699164-9.985166 751.072981 52.523493 811.537074 180.944328c60.446697 128.631636-49.411363 179.541119-84.36648 186.510857z m-312.269049-317.941235c-146.646941-6.852058-265.204128 66.685795-265.204128 164.552753 0 97.974405 118.557186 176.542832 265.204128 183.301769 146.754389 6.755868 265.538749-53.705156 265.538748-151.478993 0-97.853655-118.78436-189.712783-265.538748-196.375529zM385.647267 332.836737C238.144842 315.572538 255.1921 177.410851 255.1921 177.410851s-1.5104-43.748387 39.546691-66.029855c86.303598-46.746674 175.164439-18.443048 220.077348 39.532365 44.912909 57.999972 18.546402 199.066825-129.168872 181.923376z m-37.20332-193.914478c-27.542286-3.225461-49.730635 12.646018-49.730635 35.68985 0 22.937408 19.713994 46.960545 47.267537 49.838082 31.636534 3.009544 52.219315-15.216563 52.219315-38.261419 0-22.936385-22.321378-44.149523-49.756217-47.266513z m86.945211 74.072019c-9.326413-6.972808-20.807908-6.007831-25.733081 2.354627-5.139044 8.150634-3.212158 21.227464 6.221702 28.089756 10.936073 8.137331 22.295795 5.79703 27.220968-2.367931 4.938476-8.351202 1.406023-20.889773-7.709589-28.076452zM798.99441 427.277666c11.883655 0 21.988804 8.792247 23.688515 20.259416 0.213871 0.857531 0.320295 1.606591 0.320295 2.570545 18.012236 161.967882-132.715651 134.094044-132.715651 134.094044-13.380752 0-24.113187-10.828626-24.113187-24.330128 0-13.289678 10.732435-24.116257 24.113187-24.116257 108.264772 23.899316 84.376713-84.36648 84.376713-84.36648 0.001023-13.392008 10.908444-24.111141 24.330128-24.11114zM781.423219 714.590324c-52.109822 12.204973-105.708554-0.617054-120.724549-3.493568-1.161453-0.107447-2.24718-2.355651-3.316535-2.570545-0.523933-0.106424-0.844228-1.217734-0.844228-1.217734-14.800078-4.189416-25.628704-18.181081-25.628703-34.373879 0-19.297508 15.644305-35.313274 35.155684-35.313273 0 0 18.977213 2.471284 31.839149 7.503904 12.752442 5.139044 120.697943 3.790326 174.306908-86.246293 29.255301-65.709561 12.862959-109.703541 10.815323-116.768447 0 0-6.958482-17.087167-6.958482-33.892925 0-19.404955 15.655562-26.996864 35.034934-26.996864 16.2061 0 29.817096 9.657964 33.790594 34.217313h0.213871c57.558927 193.404871-70.432119 277.392728-163.683966 299.152311z"  horiz-adv-x="1024" />

    
    <glyph glyph-name="level-solid" unicode="&#59207;" d="M261.621533 605.945905c81.72021 78.238922 219.082694 85.195358 219.082694 85.195357L416.371012 812.855348c-3.480264 10.432607-12.172227 17.382902-22.60381 17.382902H185.116091c-13.906731 0-24.339338-10.432607-24.339338-22.604833 0-5.216815 1.735527-8.69094 5.215792-13.907755l95.628988-187.779757zM859.747075 797.201833c3.475148 1.741667 5.215792 6.957459 5.215792 12.172227 0 12.172227-10.432607 22.604834-24.339338 22.604834H631.972419c-10.432607 0-20.863167-6.956436-22.603811-17.389042l-64.333214-121.707946s137.361461-8.698103 219.082694-83.461877l95.628987 187.781804zM512 638.982322c-194.738239 0-352.96389-158.226674-352.96389-351.229386 1.740644-194.737216 159.966295-351.222223 352.96389-351.222224 193.002712 0 352.96389 156.485007 352.96389 351.222224 0 194.738239-158.226674 351.229386-352.96389 351.229386z m179.089841-321.668117l-67.808362-64.332191 15.647375-90.418312c5.215792-29.556153-12.172227-43.468001-41.732473-29.556153l-85.196381 43.468001-85.196381-43.468001c-27.819602-13.912871-46.948265-1.740644-41.733497 29.556153l15.654539 90.418312-67.813479 64.332191c-22.604834 20.863167-15.648398 41.72838 15.648399 46.944172l93.89346 13.912871 41.727357 81.715093c13.913894 27.821649 36.512588 27.821649 52.166103 0l41.727357-81.715093 93.894483-13.912871c34.768875-5.215792 43.466977-26.081005 19.1215-46.944172z"  horiz-adv-x="1024" />

    
    <glyph glyph-name="pig-solid" unicode="&#59210;" d="M539.423583 708.401368c-61.47205 0-122.94717-11.17655-176.034249-33.529651-41.917692 27.943422-117.357871 58.678424-240.305041 53.089126 0 0 55.885821-92.207052 83.82822-159.269424-30.735002-36.326347-55.885821-75.445296-69.860091-120.148427h-30.735001c-22.352077 0-41.911552-19.559475-41.911552-41.917692v-95.004771c0-19.559475 19.559475-39.118949 41.911552-39.118949h30.735001c25.15082-81.029478 83.829244-148.092873 164.859746-195.594747v-139.708925h120.15559l55.884798 81.029478c22.352077-2.792603 41.911552-2.792603 64.264653-2.792603 41.917692 0 81.036641 5.585205 120.154567 13.970176v-92.207051h117.357871l114.564246 237.506299c41.912575 53.093219 64.262606 117.355825 64.262606 187.215915-2.793626 192.798051-187.210799 346.481246-419.132916 346.481246zM315.885414 412.216645c0-16.766872-11.175527-27.943422-27.942399-27.943422s-27.943422 11.17655-27.943423 27.943422v55.885822c0 16.761756 11.17655 27.936259 27.943423 27.936259s27.942399-11.175527 27.942399-27.936259v-55.885822z m0 0M911.054625 588.250894c27.942399 25.15082 44.709271 61.47205 44.709271 103.388718 0 78.236875-61.470003 139.708925-139.714042 139.708926-64.262606 0-120.149451-44.710294-136.915299-106.180298 97.795327-22.352077 178.831968-72.646554 231.92007-136.917346z m0 0"  horiz-adv-x="1024" />

    
    <glyph glyph-name="icon_left" unicode="&#59212;" d="M1.177374 326.226859V894.017593h227.113429v-567.790734c0-125.429674 101.687848-227.109338 227.118544-227.109338h567.78562v-227.117521H455.409347c-250.862416 0-454.231974 203.366489-454.231973 454.226859z"  horiz-adv-x="1024" />

    
    <glyph glyph-name="_hate" unicode="&#59215;" d="M873.877805 512.040891c64.792269 0 25.557064 143.77382-34.093123 143.77382 29.840428 0 0 85.871735-59.629742 85.871736 0 59.895536-59.639965 89.838192-119.27993 89.838192-251.941538 0.010223-150.551553-37.374651-404.772782-63.892661v-447.289513c224.534143-67.603546 434.562096-231.230093 434.562096-383.355962 49.386471 0 178.899449 59.895536 0 359.403881 0 0 154.926923 21.140803 183.182813 23.962303 159.189841 15.947608 56.849133 191.688204 0.030668 191.688204z m-681.647791 255.570642h-61.531188c-36.444373 0-66.274579-42.455395-66.274579-94.397572v-263.401326c0-49.222906 27.846977-89.47017 61.848095-89.47017h65.957672z"  horiz-adv-x="1024" />

    
    <glyph glyph-name="like" unicode="&#59216;" d="M873.888028 256.47025c64.782046 0 25.557064-143.784043-34.072678-143.784043 29.830205 0 0-85.871735-59.639965-85.871735 0-59.895536-59.639965-89.838192-119.269707-89.838192-251.921093 0-150.623113 37.364428-404.823895 63.89266V448.148231c224.52392 67.613769 434.602987 231.250539 434.602987 383.355962 49.396694 0 178.899449-59.895536 0-359.393659 0 0 154.926923-21.151026 183.17259-23.972526 159.128504-15.947608 56.838911-191.667758 0.030668-191.667758z m-681.668237-255.570641h-61.439182c-36.434151 0-66.264356 42.455395-66.264356 94.397572V358.698507c0 49.222906 27.836754 89.459947 61.837872 89.459947h65.865666z"  horiz-adv-x="1024" />

    
    <glyph glyph-name="shizhong" unicode="&#59217;" d="M511.706311 768.019187c-211.94718 0-383.764384-171.817204-383.764384-383.764384s171.817204-383.764384 383.764384-383.764384 383.764384 171.817204 383.764384 383.764384-171.818227 383.764384-383.764384 383.764384z m223.861534-447.725114H479.725946c-3.311419 0-6.506181 0.503467-9.509585 1.437745a31.610952 31.610952 0 0 0-4.354168 1.716084 32.03767 32.03767 0 0 0-9.807366 7.323803 32.116465 32.116465 0 0 0-4.448312 6.259564 31.833009 31.833009 0 0 0-3.859911 15.244192V608.11736c0 17.662265 14.3181 31.980365 31.980365 31.980366 17.662265 0 31.980365-14.3181 31.980365-31.980366v-223.862557h223.862558c17.662265 0 31.980365-14.3181 31.980365-31.980365-0.002047-17.662265-14.320147-31.980365-31.982412-31.980365z"  horiz-adv-x="1024" />

    


  </font>
</defs>
</svg>
